# File created by Blade
# Date/Time:  Tue Jan 27 19:23:16 2015
# Frame Rate: 120.000 fps
#------------------------------------------------------
:FULLY-SPECIFIED
:DEGREES
3558
root 2.315236 32.259798 0.855816 -2.574796 -13.767386 -1.089024
Spine 1.214087 -15.192368 -0.807499
Head 13.016631 -5.136116 1.196611
LeftShoulder -11.733258 3.285557 28.832889
LeftArm -9.887125 43.651498 -108.303552
LeftForeArm 4.756107 -0.000000 21.933328
LeftHand 9.433996 -0.000000 -6.921063
LeftHandThumb1 -26.253704 0.000000 33.147579
RightShoulder -29.370681 -21.078552 -39.854422
RightArm 142.273068 110.072502 192.901660
RightForeArm 25.121461 0.000000 99.718893
RightHand 26.843250 0.000000 -13.105963
RightHandThumb1 -24.326973 -0.000000 -32.862282
LeftUpLeg 15.108174 17.119567 5.765349
LeftLeg -1.044121 -0.000000 0.000000
LeftFoot -17.445046 11.424948 -25.705155
LeftToeBase 16.896913 -0.000000 -0.000000
RightUpLeg 7.071018 4.034066 5.978577
RightLeg 2.629642 -0.000000 -0.000000
RightFoot -11.764550 -12.786294 11.631441
RightToeBase 11.576617 -0.000000 -0.000000
3559
root 2.280859 32.257640 0.843863 -2.526223 -14.231519 -1.124802
Spine 1.264598 -15.365063 -0.936644
Head 12.969731 -4.505011 1.488784
LeftShoulder -11.996632 3.436773 28.867812
LeftArm -10.067904 43.382549 -108.380905
LeftForeArm 4.653413 0.000000 21.971655
LeftHand 9.470613 -0.000000 -6.882838
LeftHandThumb1 -26.253704 0.000000 33.147579
RightShoulder -29.584711 -21.263954 -39.778888
RightArm 141.559755 110.155682 192.485092
RightForeArm 25.444906 -0.000000 99.756163
RightHand 26.862444 0.000000 -12.918030
RightHandThumb1 -24.326973 -0.000000 -32.862282
LeftUpLeg 15.198191 17.456558 5.878119
LeftLeg -1.107149 -0.000000 0.000000
LeftFoot -17.517673 11.501727 -25.896555
LeftToeBase 17.011348 -0.000000 -0.000000
RightUpLeg 6.993687 4.200778 6.066812
RightLeg 2.636396 -0.000000 -0.000000
RightFoot -11.642664 -12.647753 11.410100
RightToeBase 11.554917 -0.000000 -0.000000
3560
root 2.244963 32.256539 0.827978 -2.490948 -14.681432 -1.183157
Spine 1.304197 -15.422795 -1.072150
Head 13.039220 -3.982548 1.841271
LeftShoulder -12.047883 3.577081 28.924746
LeftArm -10.192736 43.050098 -108.430361
LeftForeArm 4.561192 -0.000000 22.022999
LeftHand 9.482712 -0.000000 -6.828616
LeftHandThumb1 -26.253704 0.000000 33.147579
RightShoulder -29.941130 -21.673484 -39.583810
RightArm 141.275473 110.068595 192.522566
RightForeArm 25.751740 0.000000 99.826646
RightHand 26.819497 -0.000000 -12.737751
RightHandThumb1 -24.326973 -0.000000 -32.862282
LeftUpLeg 15.297576 17.781504 6.016889
LeftLeg -1.157341 -0.000000 0.000000
LeftFoot -17.547905 11.595802 -25.974177
LeftToeBase 17.038196 -0.000000 -0.000000
RightUpLeg 6.905927 4.447521 6.185161
RightLeg 2.693866 -0.000000 -0.000000
RightFoot -11.553701 -12.517111 11.319108
RightToeBase 11.609446 -0.000000 -0.000000
3561
root 2.213493 32.255838 0.811800 -2.434268 -15.143380 -1.206819
Spine 1.328347 -15.538024 -1.238605
Head 13.056184 -3.361215 2.211489
LeftShoulder -12.258103 3.807631 28.989191
LeftArm -10.179201 42.795709 -108.468362
LeftForeArm 4.568727 -0.000000 21.904931
LeftHand 9.506881 0.000000 -6.573793
LeftHandThumb1 -26.253704 0.000000 33.147579
RightShoulder -30.163653 -21.822145 -39.469760
RightArm 140.574725 110.133310 192.127433
RightForeArm 25.939003 0.000000 99.871980
RightHand 26.829418 -0.000000 -12.696845
RightHandThumb1 -24.326973 -0.000000 -32.862282
LeftUpLeg 15.386834 18.047238 6.084676
LeftLeg -1.262042 -0.000000 0.000000
LeftFoot -17.552490 11.800199 -26.004324
LeftToeBase 17.030357 -0.000000 -0.000000
RightUpLeg 6.797709 4.718038 6.267581
RightLeg 2.728234 -0.000000 -0.000000
RightFoot -11.453245 -12.444494 11.164474
RightToeBase 11.527463 -0.000000 -0.000000
3562
root 2.178765 32.255334 0.799592 -2.372938 -15.548296 -1.253614
Spine 1.331853 -15.679298 -1.367583
Head 13.081915 -2.791490 2.513733
LeftShoulder -12.416849 3.870932 29.038381
LeftArm -10.446889 42.505939 -108.608338
LeftForeArm 4.541141 -0.000000 21.925963
LeftHand 9.505610 -0.000000 -6.470427
LeftHandThumb1 -26.253704 0.000000 33.147579
RightShoulder -30.440630 -22.056531 -39.316446
RightArm 140.037259 110.067596 191.888940
RightForeArm 26.185326 0.000000 99.938725
RightHand 26.782848 0.000000 -12.637422
RightHandThumb1 -24.326973 -0.000000 -32.862282
LeftUpLeg 15.474674 18.367987 6.211651
LeftLeg -1.343417 -0.000000 0.000000
LeftFoot -17.560321 11.836152 -26.098334
LeftToeBase 17.099816 -0.000000 -0.000000
RightUpLeg 6.711466 4.834339 6.356897
RightLeg 2.736236 -0.000000 -0.000000
RightFoot -11.313007 -12.279578 10.993660
RightToeBase 11.611148 -0.000000 -0.000000
3563
root 2.146432 32.254538 0.783239 -2.331411 -15.896388 -1.309573
Spine 1.377434 -15.898822 -1.508369
Head 13.113653 -2.255740 2.834111
LeftShoulder -12.564680 4.057984 29.081395
LeftArm -10.519517 42.299442 -108.661246
LeftForeArm 4.512916 -0.000000 21.924761
LeftHand 9.391943 -0.000000 -6.379752
LeftHandThumb1 -26.253704 0.000000 33.147579
RightShoulder -30.615637 -22.235551 -39.190580
RightArm 139.256601 110.054997 191.475740
RightForeArm 26.307345 -0.000000 100.045372
RightHand 26.694385 -0.000000 -12.719551
RightHandThumb1 -24.326973 -0.000000 -32.862282
LeftUpLeg 15.550856 18.618593 6.332428
LeftLeg -1.402320 -0.000000 0.000000
LeftFoot -17.527381 11.916017 -26.063089
LeftToeBase 17.001513 -0.000000 -0.000000
RightUpLeg 6.654379 5.043951 6.456952
RightLeg 2.734725 -0.000000 -0.000000
RightFoot -11.234452 -12.134155 11.000386
RightToeBase 11.700197 -0.000000 -0.000000
3564
root 2.113381 32.255000 0.767195 -2.277409 -16.224685 -1.347616
Spine 1.381878 -16.084569 -1.672260
Head 13.193108 -1.839661 3.143368
LeftShoulder -12.663399 4.175796 29.140545
LeftArm -10.675625 42.054118 -108.754350
LeftForeArm 4.485586 -0.000000 21.942799
LeftHand 9.256499 -0.000000 -6.317882
LeftHandThumb1 -26.253704 0.000000 33.147579
RightShoulder -30.841259 -22.467130 -39.035779
RightArm 138.704681 109.990726 191.289978
RightForeArm 26.186374 0.000000 100.146640
RightHand 26.579293 -0.000000 -12.959681
RightHandThumb1 -24.326973 -0.000000 -32.862282
LeftUpLeg 15.609634 18.879639 6.443518
LeftLeg -1.476179 -0.000000 0.000000
LeftFoot -17.541574 11.945249 -26.262715
LeftToeBase 17.025517 -0.000000 -0.000000
RightUpLeg 6.577153 5.107374 6.532931
RightLeg 2.739864 -0.000000 -0.000000
RightFoot -11.105173 -11.937508 10.873266
RightToeBase 11.723418 -0.000000 -0.000000
3565
root 2.079287 32.254034 0.756958 -2.223623 -16.573975 -1.405297
Spine 1.368792 -16.243041 -1.802506
Head 13.279679 -1.414580 3.439810
LeftShoulder -12.836318 4.421618 29.217203
LeftArm -10.599255 42.012295 -108.810675
LeftForeArm 4.375891 -0.000000 21.738874
LeftHand 9.450717 0.000000 -6.363352
LeftHandThumb1 -26.253704 0.000000 33.147579
RightShoulder -31.042550 -22.651102 -38.869930
RightArm 138.068642 109.935239 190.951595
RightForeArm 26.129357 0.000000 100.244510
RightHand 26.499266 -0.000000 -13.018078
RightHandThumb1 -24.326973 -0.000000 -32.862282
LeftUpLeg 15.731810 19.215092 6.596495
LeftLeg -1.599120 -0.000000 0.000000
LeftFoot -17.441818 11.947251 -26.166303
LeftToeBase 16.903892 -0.000000 -0.000000
RightUpLeg 6.528300 5.282310 6.637761
RightLeg 2.719979 -0.000000 -0.000000
RightFoot -10.990285 -11.809677 10.799490
RightToeBase 11.782543 -0.000000 -0.000000
3566
root 2.051153 32.253340 0.743529 -2.178193 -16.863771 -1.429717
Spine 1.365367 -16.415799 -1.962041
Head 13.348255 -1.006425 3.730802
LeftShoulder -12.914196 4.515181 29.286839
LeftArm -10.734494 41.897512 -108.935114
LeftForeArm 4.330496 -0.000000 21.698703
LeftHand 9.478686 -0.000000 -6.307029
LeftHandThumb1 -26.253704 0.000000 33.147579
RightShoulder -31.204870 -22.819159 -38.741889
RightArm 137.241645 109.896306 190.502728
RightForeArm 26.105266 -0.000000 100.361511
RightHand 26.481983 -0.000000 -12.948943
RightHandThumb1 -24.326973 -0.000000 -32.862282
LeftUpLeg 15.813592 19.501579 6.704332
LeftLeg -1.705392 -0.000000 0.000000
LeftFoot -17.425986 11.920924 -26.315492
LeftToeBase 17.103227 -0.000000 -0.000000
RightUpLeg 6.481339 5.430065 6.703460
RightLeg 2.689400 -0.000000 -0.000000
RightFoot -10.885980 -11.714385 10.694064
RightToeBase 11.755562 -0.000000 -0.000000
3567
root 2.020516 32.252029 0.731200 -2.119185 -17.142011 -1.473199
Spine 1.342378 -16.596296 -2.105081
Head 13.410455 -0.595853 4.049750
LeftShoulder -13.006845 4.593094 29.387752
LeftArm -10.917798 41.748782 -109.103804
LeftForeArm 4.379144 -0.000000 21.648206
LeftHand 9.438293 -0.000000 -6.171859
LeftHandThumb1 -26.253704 0.000000 33.147579
RightShoulder -31.276766 -22.940033 -38.630951
RightArm 136.228519 109.970228 189.856876
RightForeArm 26.226758 -0.000000 100.463254
RightHand 26.418602 -0.000000 -13.137525
RightHandThumb1 -24.326973 -0.000000 -32.862282
LeftUpLeg 15.893987 19.768968 6.828842
LeftLeg -1.815368 -0.000000 0.000000
LeftFoot -17.370723 11.898515 -26.376993
LeftToeBase 17.183037 -0.000000 -0.000000
RightUpLeg 6.434497 5.596964 6.795108
RightLeg 2.649598 -0.000000 -0.000000
RightFoot -10.785233 -11.654604 10.633051
RightToeBase 11.694287 -0.000000 -0.000000
3568
root 1.992987 32.250726 0.719741 -2.084036 -17.377220 -1.513078
Spine 1.365948 -16.742747 -2.235145
Head 13.405270 -0.221574 4.322196
LeftShoulder -13.116624 4.670234 29.461484
LeftArm -10.982046 41.729034 -109.221503
LeftForeArm 4.432045 -0.000000 21.524738
LeftHand 9.456603 -0.000000 -6.185455
LeftHandThumb1 -26.253704 0.000000 33.147579
RightShoulder -31.588152 -23.143665 -38.460351
RightArm 135.981231 109.888853 189.936634
RightForeArm 26.418332 -0.000000 100.538316
RightHand 26.410666 0.000000 -13.013738
RightHandThumb1 -24.326973 -0.000000 -32.862282
LeftUpLeg 15.989387 19.899210 6.917513
LeftLeg -1.948452 -0.000000 0.000000
LeftFoot -17.335281 11.977219 -26.407771
LeftToeBase 17.168670 -0.000000 -0.000000
RightUpLeg 6.404537 5.727592 6.876234
RightLeg 2.627333 -0.000000 -0.000000
RightFoot -10.692584 -11.584998 10.534631
RightToeBase 11.758725 -0.000000 -0.000000
